<svg preserveAspectRatio="none" width="100%" height="100%" overflow="visible" style="display: block;" viewBox="0 0 20.9999 14.9038" fill="none" xmlns="http://www.w3.org/2000/svg">
<path id="Icon" d="M12.4423 5.26534V3.94998C12.9859 3.69742 13.5548 3.50799 14.149 3.38171C14.7432 3.25543 15.3602 3.19229 16 3.19229C16.4012 3.19229 16.791 3.22081 17.1692 3.27786C17.5474 3.33491 17.9269 3.41023 18.3076 3.50382V4.75764C17.9333 4.62687 17.5612 4.532 17.1913 4.47303C16.8214 4.41406 16.4243 4.38457 16 4.38457C15.3602 4.38457 14.7407 4.46053 14.1413 4.61245C13.5419 4.76438 12.9756 4.982 12.4423 5.26534V5.26534M12.4423 10.7461V9.41152C12.973 9.15895 13.5403 8.96953 14.1442 8.84324C14.748 8.71696 15.3666 8.65382 16 8.65382C16.4012 8.65382 16.791 8.68235 17.1692 8.7394C17.5474 8.79645 17.9269 8.87177 18.3076 8.96536V10.2192C17.9333 10.0884 17.5612 9.99354 17.1913 9.93457C16.8214 9.87559 16.4243 9.84611 16 9.84611C15.3602 9.84611 14.7407 9.92271 14.1413 10.0759C13.5419 10.2291 12.9756 10.4525 12.4423 10.7461V10.7461M12.4423 8.01534V6.68075C12.9859 6.42818 13.5548 6.23876 14.149 6.11248C14.7432 5.98619 15.3602 5.92305 16 5.92305C16.4012 5.92305 16.791 5.95158 17.1692 6.00863C17.5474 6.06568 17.9269 6.141 18.3076 6.23459V7.48841C17.9333 7.35764 17.5612 7.26277 17.1913 7.2038C16.8214 7.14482 16.4243 7.11534 16 7.11534C15.3602 7.11534 14.7407 7.1945 14.1413 7.35284C13.5419 7.51117 12.9756 7.732 12.4423 8.01534V8.01534M4.99996 11.5384C5.82817 11.5384 6.63394 11.6323 7.41728 11.8202C8.20062 12.008 8.97818 12.3025 9.74998 12.7038V2.87305C9.04742 2.41536 8.28716 2.07208 7.4692 1.84324C6.65125 1.61439 5.82817 1.49996 4.99996 1.49996C4.39996 1.49996 3.83939 1.54708 3.31824 1.64131C2.79709 1.73554 2.26152 1.8897 1.71152 2.1038C1.63459 2.12945 1.5801 2.16631 1.54804 2.21439C1.51599 2.26247 1.49996 2.31536 1.49996 2.37305V11.8307C1.49996 11.9205 1.53202 11.9862 1.59612 12.0278C1.66023 12.0695 1.73075 12.0743 1.80768 12.0423C2.28203 11.8807 2.78266 11.7564 3.30958 11.6692C3.8365 11.582 4.39996 11.5384 4.99996 11.5384V11.5384M11.2499 12.7038C12.0217 12.3025 12.7993 12.008 13.5826 11.8202C14.366 11.6323 15.1718 11.5384 16 11.5384C16.6 11.5384 17.1634 11.582 17.6903 11.6692C18.2173 11.7564 18.7179 11.8807 19.1922 12.0423C19.2692 12.0743 19.3397 12.0695 19.4038 12.0278C19.4679 11.9862 19.5 11.9205 19.5 11.8307V2.37305C19.5 2.31536 19.4839 2.26407 19.4519 2.2192C19.4198 2.17432 19.3653 2.13586 19.2884 2.1038C18.7384 1.8897 18.2028 1.73554 17.6817 1.64131C17.1605 1.54708 16.6 1.49996 16 1.49996C15.1718 1.49996 14.3487 1.61439 13.5307 1.84324C12.7128 2.07208 11.9525 2.41536 11.2499 2.87305V12.7038V12.7038M10.5 14.9038C9.69355 14.3089 8.82368 13.8493 7.89035 13.5249C6.95701 13.2006 5.99355 13.0384 4.99996 13.0384C4.38971 13.0384 3.79036 13.106 3.20191 13.2413C2.61345 13.3765 2.04615 13.5756 1.5 13.8384C1.14359 14.0025 0.804487 13.9765 0.482692 13.7605C0.160897 13.5445 0 13.2384 0 12.8422V1.98461C0 1.76922 0.0554494 1.56697 0.166348 1.37787C0.277247 1.18877 0.437185 1.05255 0.646161 0.969214C1.32308 0.639732 2.02852 0.395826 2.76249 0.237495C3.49645 0.0791651 4.24228 0 4.99996 0C5.97304 0 6.92368 0.133013 7.85189 0.39904C8.78009 0.665067 9.66279 1.0577 10.5 1.57693C11.3371 1.0577 12.2198 0.665067 13.148 0.39904C14.0762 0.133013 15.0269 0 16 0C16.7576 0 17.5035 0.0791651 18.2374 0.237495C18.9714 0.395826 19.6768 0.639732 20.3538 0.969214C20.5627 1.05255 20.7227 1.18877 20.8336 1.37787C20.9445 1.56697 20.9999 1.76922 20.9999 1.98461V12.8422C20.9999 13.2384 20.8326 13.5413 20.498 13.7509C20.1634 13.9605 19.8115 13.9832 19.4422 13.8191C18.9025 13.5627 18.3432 13.3685 17.7644 13.2365C17.1855 13.1044 16.5974 13.0384 16 13.0384C15.0064 13.0384 14.0429 13.2006 13.1096 13.5249C12.1762 13.8493 11.3064 14.3089 10.5 14.9038V14.9038M5.62497 7.10188V7.10188V7.10188V7.10188V7.10188V7.10188V7.10188V7.10188V7.10188V7.10188V7.10188V7.10188V7.10188V7.10188V7.10188V7.10188" fill="var(--fill-0, #264B5F)"/>
</svg>
